<?xml version="1.0" standalone="no"?>
<!DOCTYPE svg PUBLIC "-//W3C//DTD SVG 1.1//EN" "http://www.w3.org/Graphics/SVG/1.1/DTD/svg11.dtd" >
<!--
2013-9-30: Created.
-->
<svg>
<metadata>
Created by iconfont
</metadata>
<defs>

<font id="iconfont" horiz-adv-x="1024" >
  <font-face
    font-family="iconfont"
    font-weight="500"
    font-stretch="normal"
    units-per-em="1024"
    ascent="896"
    descent="-128"
  />
    <missing-glyph />
    
    <glyph glyph-name="-github" unicode="&#59631;" d="M950.857143 384q0-143.428571-83.714286-258T650.857143-32.571428999999966q-15.428571-2.857143-22.571429 4t-7.142857 17.142858v120.571428q0 55.428571-29.714286 81.142857 32.571429 3.428571 58.571429 10.285715t53.714286 22.285714 46.285714 38 30.285714 60T792 406.857143q0 69.142857-45.142857 117.714286 21.142857 52-4.571429 116.571428-16 5.142857-46.285714-6.285714t-52.571429-25.142857l-21.714285-13.714286q-53.142857 14.857143-109.714286 14.857143t-109.714286-14.857143q-9.142857 6.285714-24.285714 15.428571T330.285714 633.4285709999999 281.142857 641.142857q-25.142857-64.571429-4-116.571428-45.142857-48.571429-45.142857-117.714286 0-48.571429 11.714286-85.714286t30-60 46-38.285714 53.714285-22.285714 58.571429-10.285715q-22.857143-20.571429-28-58.857143-12-5.714286-25.714286-8.571428t-32.571428-2.857143-37.428572 12.285714T276.571429 168q-10.857143 18.285714-27.714286 29.714286t-28.285714 13.714285l-11.428572 1.714286q-12 0-16.571428-2.571428t-2.857143-6.571429 5.142857-8 7.428571-6.857143l4-2.857143q12.571429-5.714286 24.857143-21.714285t18-29.142858l5.714286-13.142857q7.428571-21.714286 25.142857-35.142857t38.285714-17.142857 39.714286-4 31.714286 2l13.142857 2.285714q0-21.714286 0.285714-50.857143t0.285714-30.857142q0-10.285714-7.428571-17.142858t-22.857143-4q-132.571429 44-216.285714 158.571429T73.142857 384q0 119.428571 58.857143 220.285714T291.714286 764 512 822.857143t220.285714-58.857143T892 604.285714 950.857143 384z"  horiz-adv-x="1024" />

    
    <glyph glyph-name="-volume" unicode="&#58941;" d="M789.904 639.994a35.337 35.337 0 0 1-26.856 4.837 35.348 35.348 0 0 1-22.293-15.745c-10.69-16.753-6.085-38.982 10.384-50.116 3.845-2.61 95.493-66.021 95.493-223.695 0-158.078-87.909-221.529-91.385-223.917-16.537-11.266-20.958-33.723-9.931-50.414a35.583 35.583 0 0 1 22.707-15.351 35.58 35.58 0 0 1 26.885 5.339c5.043 3.363 123.277 85.635 123.277 284.382 0 199.051-123.017 281.284-128.281 284.68M678.54 533.337a35.357 35.357 0 0 1-27.125 1.288 35.378 35.378 0 0 1-20.041-18.319c-8.474-17.905-1.265-39.308 16.321-48.436 2.279-1.192 55.866-29.426 55.866-109.94 0-85.97-50.116-114.463-51.758-115.397-17.756-9.141-24.891-30.84-16.023-48.732a35.783 35.783 0 0 1 48.025-16.286c3.739 1.943 91.272 47.911 91.272 180.375 0 127.906-92.615 173.577-96.536 175.481M515.796 95.24699999999996l-74.695 67.89-122.264 111.176a37.404 37.404 0 0 1-25.17 9.71l-113.979-0.034-0.37 239.827h150.05a37.423 37.423 0 0 1 32.001 9.072l79.698 72.488 74.688 67.89v-578.019h0.041z m44.361 678.294c-9.147 4.028-33.273 10.792-59.747-13.295l-59.31-53.928-118.604-107.814H179.318c-41.107-0.165-74.341-33.546-74.318-74.653v-239.862c0-41.16 33.346-74.655 74.318-74.655h99.932L441.1 62.197l59.383-53.963c14.976-13.597 29.165-17.403 40.334-17.403 8.621 0 15.494 2.279 19.454 4.034 9.112 4.029 30.246 17.25 30.246 52.99v672.84c0 24.685-11.35 44.406-30.36 52.846z m0 0"  horiz-adv-x="1024" />

    
    <glyph glyph-name="-mute" unicode="&#58942;" d="M515.756 274.67999999999995v-179.391L441.1 163.14099999999996 318.837 274.31500000000005a37.46 37.46 0 0 1-25.169 9.714l-113.981-0.036-0.369 239.826h87.299l-74.687 74.687h-12.612c-41.107-0.164-74.341-33.553-74.318-74.651v-239.862c0-41.171 33.348-74.651 74.318-74.651h99.929L441.1 62.19200000000001l59.382-53.965c14.977-13.596 29.165-17.387 40.332-17.387 8.621 0 15.496 2.26 19.455 4.028 9.113 4.028 30.245 17.241 30.245 52.981V199.91999999999996l-74.758 74.76zM846.634 355.27099999999996c0-72.792-18.663-125.298-39.116-161.239l52.156-52.161c29.753 45.873 58.512 115.439 58.512 213.436 0 199.056-123.02 281.288-128.283 284.678a35.316 35.316 0 0 1-26.859 4.848 35.397 35.397 0 0 1-22.289-15.747c-10.689-16.749-6.087-38.984 10.384-50.119 3.845-2.605 95.495-66.011 95.495-223.696zM647.697 467.867c2.278-1.185 55.865-29.416 55.865-109.935 0-20.759-3.012-38-7.463-52.47l54.616-54.621c13.733 26.828 24.363 61.51 24.363 107.055 0 127.905-92.616 173.577-96.534 175.472v-0.036a35.383 35.383 0 0 1-27.128 1.294 35.349 35.349 0 0 1-20.039-18.316c-8.475-17.916-1.267-39.312 16.32-48.443zM417.558 583.998l23.511 21.378 74.687 67.889V485.8l74.76-74.76V720.687c0 24.695-11.35 44.415-30.359 52.853-9.145 4.028-33.275 10.789-59.747-13.304l-59.309-53.91-76.405-69.456 52.862-52.872zM829.266 29.403999999999996c-9.55 0-19.1 3.645-26.39 10.935l-634.53 634.53c-14.58 14.58-14.58 38.2 0 52.78 14.58 14.58 38.2 14.58 52.78 0l634.53-634.529c14.58-14.58 14.58-38.2 0-52.78-7.29-7.291-16.84-10.936-26.39-10.936z"  horiz-adv-x="1024" />

    
    <glyph glyph-name="-pause-button" unicode="&#58891;" d="M512 896a512 512 0 0 0 512-512 512 512 0 1 0-512 512z m-64-320h-128v-384h128v384z m256 0h-128v-384h128v384z"  horiz-adv-x="1024" />

    
    <glyph glyph-name="-user" unicode="&#58962;" d="M815.814506 596.649355c0-165.306834-134.011812-299.350645-299.350645-299.350645s-299.350645 134.011812-299.350645 299.350645c0 165.306834 134.011812 299.350645 299.350645 299.350645s299.350645-134.011812 299.350645-299.350645zM763.52814 283.219149c-69.75782-55.070279-156.219118-85.661323-247.064279-85.661323-91.901128 0-179.1944 31.295022-249.27221 87.421268-184.698228-67.805881-267.19165-304.758476-267.19165-412.979094l1027.711884 0c0 107.260648-83.133402 342.549295-264.183744 411.18715z"  horiz-adv-x="1028" />

    
    <glyph glyph-name="-play-button" unicode="&#58928;" d="M512 827.8089219999999c-245.204631 0-443.808922-198.60429-443.808922-443.808922s198.60429-443.808922 443.808922-443.808922 443.808922 198.60429 443.808922 443.808922S757.203608 827.8089219999999 512 827.8089219999999zM423.23842 184.28644599999996L423.23842 583.7145780000001l266.284739-199.713554L423.23842 184.28644599999996z"  horiz-adv-x="1024" />

    
    <glyph glyph-name="-order-play" unicode="&#59003;" d="M931.968-64L91.968-64C76.544-64 64-51.45600000000002 64-36.03200000000004l0 56c0 15.488 12.544 28.032 27.968 28.032l840 0c15.488 0 28.032-12.544 28.032-28.032l0-56C960-51.45600000000002 947.456-64 931.968-64zM931.968 328l-448 0c-15.488 0-28.032 12.544-28.032 28.032L455.936 412.032c0 15.488 12.544 28.032 28.032 28.032l448 0C947.456 440 960 427.456 960 412.032l0-56C960 340.544 947.456 328 931.968 328zM931.968 720l-448 0c-15.488 0-28.032 12.544-28.032 28.032L455.936 804.032C456 819.456 468.544 832 483.968 832l448 0C947.456 832 960 819.456 960 804.032l0-56C960 732.544 947.456 720 931.968 720zM232.064 384L232 384.192 232 804.032C232 819.456 244.544 832 259.968 832l56 0c15.488 0 28.032-12.544 28.032-27.968L344 384l0-232.128c0-17.664-21.376-26.496-33.856-14.016L97.856 350.144C85.376 362.624 94.208 384 111.872 384L232.064 384z"  horiz-adv-x="1024" />

    
    <glyph glyph-name="-loop-play" unicode="&#58989;" d="M928 419.2c-19.2 0-32-12.8-32-32v-86.4c0-108.8-86.4-198.4-198.4-198.4H201.6l41.6 38.4c6.4 6.4 12.8 16 12.8 25.6 0 19.2-16 35.2-35.2 35.2-9.6 0-22.4-3.2-28.8-9.6l-108.8-99.2c-16-12.8-12.8-35.2 0-48l108.8-96c6.4-6.4 19.2-12.8 28.8-12.8 19.2 0 35.2 12.8 38.4 32 0 12.8-6.4 22.4-16 28.8l-48 44.8h499.2c147.2 0 265.6 118.4 265.6 259.2v86.4c0 19.2-12.8 32-32 32zM96 339.20000000000005c19.2 0 32 12.8 32 32v89.6c0 112 89.6 201.6 198.4 204.8h496l-41.6-38.4c-6.4-6.4-12.8-16-12.8-25.6 0-19.2 16-35.2 35.2-35.2 9.6 0 22.4 3.2 28.8 9.6l105.6 99.2c16 12.8 12.8 35.2 0 48l-108.8 96c-6.4 6.4-19.2 12.8-28.8 12.8-19.2 0-35.2-12.8-38.4-32 0-12.8 6.4-22.4 16-28.8l48-44.8H329.6C182.4 726.4 64 608 64 457.6v-86.4c0-19.2 12.8-32 32-32zM544 224V544h-48L416 486.4l16-41.6 60.8 41.6V224z"  horiz-adv-x="1024" />

    
    <glyph glyph-name="-random-play" unicode="&#59272;" d="M912 584.1c0-4.1-1.3-7.6-4-10.2l-142.9-143c-2.7-2.7-6.1-4-10.2-4-3.8 0-7.2 1.4-10 4.2-2.8 2.8-4.2 6.2-4.2 10v85.7H626.3c-14.3 0-27.2-2.3-38.9-6.7-11.6-4.5-21.9-11.2-30.8-20.1-8.9-8.9-16.5-18.1-22.7-27.4-6.3-9.4-13-20.9-20.1-34.6-9.5-18.5-21.1-43.9-34.8-76.3-8.6-19.6-16-36.2-22.1-49.6-6.1-13.4-14.2-29-24.1-46.9s-19.5-32.8-28.5-44.6c-9.1-11.9-20.1-24.2-33.1-37.1-13-12.8-26.4-23-40.2-30.6-13.8-7.6-29.7-13.8-47.5-18.8-17.8-4.9-36.9-7.3-57.2-7.3h-100c-4.1 0-7.6 1.3-10.2 4-2.7 2.6-4 6-4 10.1v85.7c0 4.1 1.3 7.6 4 10.2 2.7 2.7 6.1 4 10.2 4h100c14.3 0 27.2 2.3 38.9 6.7 11.6 4.5 21.9 11.2 30.8 20.1 8.9 8.9 16.5 18.1 22.7 27.4 6.3 9.4 13 20.9 20.1 34.6 9.5 18.4 21.1 43.9 34.8 76.3 8.6 19.6 16 36.2 22.1 49.6 6.1 13.4 14.2 29 24.1 46.9 10 17.8 19.5 32.8 28.5 44.6 9.1 11.9 20.1 24.2 33.1 37.1 13 12.8 26.4 23 40.2 30.6 13.8 7.6 29.7 13.8 47.5 18.8 17.8 4.9 36.9 7.3 57.2 7.3h114.3v85.7c0 4.1 1.3 7.6 4 10.2 2.7 2.7 6.1 4 10.2 4 3.6 0 7.1-1.5 10.7-4.5L908 594.1c2.7-2.4 4-5.9 4-10z m-502.7-43.3c-17.8-27.4-38.2-68-61.1-121.9-6.6 13.4-12 24.1-16.5 32.4-4.5 8.2-10.5 17.7-18.1 28.4-7.6 10.7-15.2 19.2-22.7 25.3-7.6 6.1-17 11.3-28.2 15.6-11.2 4.3-23.3 6.5-36.4 6.5h-99.9c-4.1 0-7.6 1.3-10.2 4-2.7 2.7-4 6.1-4 10.2V627c0 4.1 1.3 7.6 4 10.2 2.7 2.7 6.1 4 10.2 4h100c74.2 0.1 135.3-33.4 182.9-100.4zM912 184.10000000000002c0-4.1-1.3-7.6-4-10.2l-142.9-143c-2.7-2.7-6.1-4-10.2-4-3.8 0-7.2 1.4-10 4.2s-4.2 6.2-4.2 10v85.7c-9.5 0-22.2-0.1-37.9-0.2-15.8-0.2-27.8-0.3-36.2-0.5-8.4-0.2-19.2 0-32.6 0.5s-23.9 1.2-31.7 2.3c-7.7 1-17.3 2.6-28.5 4.7-11.3 2.1-20.7 4.8-28.2 8.3-7.4 3.4-16.1 7.7-25.9 12.8-9.9 5.1-18.6 11-26.4 17.8-7.7 6.9-16 14.8-24.6 23.8-8.6 9.1-17 19.4-25 31 17.6 27.7 37.8 68.3 60.8 121.9 6.6-13.4 12-24.2 16.5-32.4s10.5-17.7 18.1-28.4c7.6-10.7 15.2-19.2 22.7-25.3 7.6-6.1 17-11.4 28.2-15.6 11.2-4.3 23.3-6.5 36.4-6.5h114.3v85.7c0 4.1 1.3 7.6 4 10.2 2.7 2.7 6.1 4 10.2 4 3.6 0 7.1-1.5 10.7-4.5L908 194c2.7-2.3 4-5.8 4-9.9z"  horiz-adv-x="1024" />

    
    <glyph glyph-name="-song-list" unicode="&#59172;" d="M608.9 608H225.6c-17.6 0-31.9 14.3-31.9 32s14.3 32 31.9 32H609c17.6 0 31.9-14.3 31.9-32s-14.3-32-32-32zM608.9 416H225.6c-17.6 0-31.9 14.3-31.9 32s14.3 32 31.9 32H609c17.6 0 31.9-14.3 31.9-32s-14.3-32-32-32zM417.3 224H225.6c-17.6 0-31.9 14.3-31.9 32s14.3 32 31.9 32h191.7c17.6 0 31.9-14.3 31.9-32s-14.3-32-31.9-32zM736.6 320c42.6 0 82.7-16.6 112.8-46.9 30.1-30.2 46.7-70.4 46.7-113.1s-16.6-82.9-46.7-113.1c-30.1-30.2-70.2-46.9-112.8-46.9-42.6 0-82.7 16.6-112.8 46.9-30.1 30.2-46.7 70.4-46.7 113.1s16.6 82.9 46.7 113.1C653.9 303.4 694 320 736.6 320m0 64c-123.4 0-223.4-100.3-223.4-224s100-224 223.4-224S960 36.299999999999955 960 160 860 384 736.6 384zM159.7 64c-17.6 0-31.9 14.3-31.9 32V736c0 17.7 14.3 32 31.9 32h513.6c17.6 0 31.9-14.3 31.9-32v-256c0-17.7 14.3-32 31.9-32 17.6 0 31.9 14.3 31.9 32V768c0 35.3-28.6 64-63.8 64H127.8C92.6 832 64 803.3 64 768v-704c0-35.3 28.6-64 63.8-64h353.5c17.6 0 31.9 14.3 31.9 32s-14.3 32-31.9 32H159.7zM812.9 177l-100.1 57.8c-13.2 7.6-29.6-1.9-29.6-17.1v-115.6c0-15.2 16.5-24.7 29.6-17.1l100.1 57.8c13.1 7.6 13.1 26.6 0 34.2z"  horiz-adv-x="1024" />

    
    <glyph glyph-name="-previous-song" unicode="&#58887;" d="M206 31h-38c-30.928 0-56 25.072-56 56V680c0 30.928 25.072 56 56 56h38c30.928 0 56-25.072 56-56v-593c0-30.928-25.072-56-56-56z m168.686 386.191l422.304 303.4c32.294 23.201 77.282 15.83 100.484-16.464A72 72 0 0 0 911 662.117v-559.053c0-39.764-32.235-72-72-72a72 72 0 0 0-39.95 12.1L376.288 325.12300000000005c-25.73 17.16-32.677 51.93-15.517 77.66a56 56 0 0 0 13.915 14.408z"  horiz-adv-x="1024" />

    
    <glyph glyph-name="-next-song" unicode="&#58888;" d="M817 736h38c30.928 0 56-25.072 56-56v-593c0-30.928-25.072-56-56-56h-38c-30.928 0-56 25.072-56 56V680c0 30.928 25.072 56 56 56zM648.314 349.80899999999997l-422.304-303.4c-32.294-23.201-77.282-15.83-100.484 16.464A72 72 0 0 0 112 104.88300000000004V663.936c0 39.764 32.235 72 72 72a72 72 0 0 0 39.95-12.1l422.762-281.959c25.73-17.16 32.677-51.93 15.517-77.66a56 56 0 0 0-13.915-14.408z"  horiz-adv-x="1024" />

    
    <glyph glyph-name="-zoom" unicode="&#58890;" d="M476.612887-113.12034000000006L169.240699 200.61956299999997a51.981345 51.981345 0 0 0 0 72.319045 49.382277 49.382277 0 0 0 70.824582 0l271.959897-277.645356 271.862433 277.645356a49.382277 49.382277 0 0 0 70.824582 0 51.981345 51.981345 0 0 0 0-72.319045l-307.307212-313.739903a49.447254 49.447254 0 0 0-70.792094 0z m307.274724 608.116755L511.99269 772.544307l-271.959897-277.645357a49.382277 49.382277 0 0 0-70.824582 0 51.981345 51.981345 0 0 0 0 72.319045L476.580399 880.957898a49.382277 49.382277 0 0 0 70.727117 0l307.372188-313.739903a51.981345 51.981345 0 0 0 0-72.319045 49.414766 49.414766 0 0 0-70.824582 0z"  horiz-adv-x="1024" />

    
    <glyph glyph-name="-delete" unicode="&#58918;" d="M797.536 540V72a102.496 102.496 0 0 0-100.912-104H343.392a102.496 102.496 0 0 0-100.928 104V540A51.2 51.2 0 0 0 192 592v52a51.2 51.2 0 0 0 50.464 52h151.392V748A51.2 51.2 0 0 0 444.304 800h151.392a51.2 51.2 0 0 0 50.464-52v-52h151.392A51.2 51.2 0 0 0 848 644V592a51.2 51.2 0 0 0-50.464-52zM292.928 72a51.2 51.2 0 0 1 50.464-52h353.232a51.2 51.2 0 0 1 50.464 52V540H292.928V72z m302.768 650a25.6 25.6 0 0 1-25.232 26h-100.928a25.6 25.6 0 0 1-25.232-26V696h151.392v26z m176.608-78H267.696a26.016 26.016 0 0 1 0-52h504.608a26.016 26.016 0 0 1 0 52z m-378.464-208a25.6 25.6 0 0 0 25.232-26v-312a25.248 25.248 0 1 0-50.464 0v312a25.6 25.6 0 0 0 25.232 26z m126.16 0a25.6 25.6 0 0 0 25.232-26v-312a25.248 25.248 0 1 0-50.464 0v312A25.6 25.6 0 0 0 520 436z m126.16 0a25.6 25.6 0 0 0 25.232-26v-312a25.248 25.248 0 1 0-50.464 0v312a25.6 25.6 0 0 0 25.232 26z"  horiz-adv-x="1024" />

    
    <glyph glyph-name="-like" unicode="&#58925;" d="M298.666667 42.66666699999996h-85.333334c-23.514074 0-42.666667 19.152593-42.666666 42.666666V455.111111c0 23.514074 19.152593 42.666667 42.666666 42.666667h85.333334c23.514074 0 42.666667-19.152593 42.666666-42.666667v-369.777778c0-23.514074-19.152593-42.666667-42.666666-42.666666z m-85.333334 42.666666h85.333334V455.111111c0-0.094815 0 0-0.094815 0H213.333333v-369.777778zM612.02963 42.66666699999996h-270.222223c-11.757037 0-21.333333 9.576296-21.333333 21.333333v403.911111c0 11.757037 9.576296 21.333333 21.333333 21.333333 17.825185 0 37.831111 14.601481 59.448889 43.330371C422.874074 561.3037039999999 442.405926 599.22963 459.662222 632.6044440000001c29.866667 57.837037 47.881481 92.728889 76.610371 92.728889 84.574815 0 97.185185-51.958519 97.185185-82.962963 0-41.339259-24.462222-98.133333-41.813334-133.214814h162.133334c54.897778 0 99.555556-44.657778 99.555555-99.555556v-61.62963c0-60.302222-9.860741-113.303704-29.202963-157.582222-16.592593-37.831111-40.201481-69.404444-70.068148-93.961481-48.545185-39.632593-106.856296-53.76-142.032592-53.76zM363.140741 85.33333300000004h248.888889c6.257778 0 62.577778 1.232593 114.915555 44.183704 55.561481 45.511111 83.721481 118.992593 83.721482 218.453333v61.62963c0 31.383704-25.505185 56.888889-56.888889 56.888889H556.088889c-7.585185 0-14.696296 4.077037-18.488889 10.714074s-3.792593 14.696296 0 21.333333c14.791111 25.505185 53.096296 101.167407 53.096296 143.834074 0 19.152593-4.077037 39.537778-51.674074 40.296297-1.991111-1.801481-6.731852-6.826667-14.885926-20.195556-8.059259-13.274074-17.066667-30.814815-26.642963-49.398518-34.228148-66.37037-75.946667-147.152593-134.352592-163.460741V85.33333300000004z"  horiz-adv-x="1024" />

    
    <glyph glyph-name="-play" unicode="&#59331;" d="M900.571429 366.285714l-758.857143-421.714286q-13.142857-7.428571-22.571429-1.714286t-9.428571 20.571429l0 841.142857q0 14.857143 9.428571 20.571429t22.571429-1.714286l758.857143-421.714286q13.142857-7.428571 13.142857-17.714286t-13.142857-17.714286z"  horiz-adv-x="1024" />

    
    <glyph glyph-name="-mv" unicode="&#59087;" d="M853.333333 725.333333h-682.666666c-62.577778 0-113.777778-51.2-113.777778-113.777777v-455.111112c0-62.577778 51.2-113.777778 113.777778-113.777777h682.666666c62.577778 0 113.777778 51.2 113.777778 113.777777v455.111112c0 62.577778-51.2 113.777778-113.777778 113.777777m56.888889-568.888889c0-34.133333-22.755556-56.888889-56.888889-56.888888h-682.666666c-34.133333 0-56.888889 22.755556-56.888889 56.888888v455.111112c0 34.133333 22.755556 56.888889 56.888889 56.888888h682.666666c34.133333 0 56.888889-22.755556 56.888889-56.888888v-455.111112m-512 56.888889l284.444445 170.666667-284.444445 170.666667v-341.333334"  horiz-adv-x="1024" />

    
    <glyph glyph-name="-find-music" unicode="&#58883;" d="M603.97 790.79c22.1 6.37 45.78 6.05 68.1 0.92 25.63-6.09 49.88-17.86 70.75-33.9 7.62-5.79 14.5-12.99 18-22.05 5.42-13.4 3.97-29.42-4.03-41.49-6.98-10.84-18.85-18.39-31.64-20.01-10.22-1.4-20.93 0.77-29.71 6.2-4.95 2.91-8.72 7.4-13.69 10.28-13.33 8.46-28.68 15.12-44.73 14.74-11.3-0.13-21.24-6.75-28.9-14.53-7.17-7.4-10.82-18.31-8.45-28.46 5.51-20.74 10.99-41.48 16.49-62.22 39.54-2.03 79.06-12.49 113.05-33.13 33.04-20.44 62.89-46.36 86.56-77.25 20.09-26.18 35.32-56.08 44.64-87.74 10.09-34.12 13.36-70.1 10.73-105.54-2.19-29.24-7.94-58.31-17.86-85.94-25.65-67.28-73.16-126.27-134.31-164.5-44.85-28.33-96.36-45.42-148.89-51.94-36.26-4.53-73.21-4.55-109.29 1.63-74.14 12.25-143.62 49.2-196.35 102.57-52.4 52.5-88.87 120.64-103.62 193.33-10.88 53.01-10.39 108.36 1.68 161.13 14.75 65.07 47.35 125.94 93.18 174.41 37.38 39.8 83.55 71.29 134.23 91.62 5.22 1.99 10.36 4.35 15.92 5.23 11.87 2.08 24.55-0.73 34.27-7.89 13.16-9.29 20.4-26.14 18.21-42.08-1.81-16.27-13.36-30.94-28.75-36.51-51.2-19.14-96.6-53.34-129.28-97.13-29.21-38.86-48.27-85.28-54.66-133.49-6.45-47.72-0.71-97 16.39-142 24.7-65.79 73.81-122.4 136.42-154.62 37.7-19.53 80.14-29.73 122.59-29.44 34.92 0.45 69.95 6.06 102.77 18.2 28.86 10.72 55.91 26.55 78.91 47.07 21.44 19 39.28 41.96 52.89 67.15 6.82 12.85 13.12 26.08 16.97 40.15 11.36 40.22 13.33 83.81 1.18 124.09-10.05 33.78-30.73 63.89-57.14 87.02-11.68 10.22-24.16 19.59-37.54 27.47-11.82 6.64-24.73 11.16-37.9 14.25 9.18-35.9 19-71.65 28.31-107.52 1.58-8.6 3.16-17.2 4.64-25.82 1.36-37.01-11.62-74.29-35.49-102.6-22.24-26.68-53.82-45.45-87.98-51.9-36.82-7.34-76.41-0.41-108.03 20-30.19 19.14-52.49 49.45-64.25 83-6.66 18.77-9.98 38.62-10.64 58.5-2.02 43.25 9.29 87.44 34.03 123.21 29.07 42.69 74.9 72.04 124.04 86.36-3.62 13.84-7.32 27.66-10.98 41.5-9.49 29.87-7.47 63.41 6.69 91.49 7.64 15.67 19 29.32 32.14 40.67 14.63 12.51 31.71 22.39 50.33 27.51M486.64 465.44c-13.18-13.84-22.42-31.34-26.4-50.02-3.58-16.96-3.6-34.64-0.38-51.65 3.93-18.79 13.63-37.17 29.71-48.26 12.48-8.86 28.73-11.55 43.62-8.64 27.55 4.84 50.03 30.19 50.8 58.24-1.05 6.95-2.2 13.9-4.16 20.66-10.29 38.92-20.67 77.81-30.9 116.75-23.28-7.18-45.44-19.28-62.29-37.08z"  horiz-adv-x="1024" />

    
    <glyph glyph-name="-left-arrow" unicode="&#58882;" d="M276.992 343.552l394.24-389.632c22.016-21.504 56.832-21.504 78.336 0.512 21.504 22.016 21.504 56.832-0.512 78.336L394.24 383.48800000000006l351.232 354.816c21.504 22.016 21.504 56.832-0.512 78.336-22.016 21.504-56.832 21.504-78.336-0.512L276.48 421.888c-21.504-21.504-21.504-56.832 0.512-78.336z"  horiz-adv-x="1024" />

    
    <glyph glyph-name="-right-arrow" unicode="&#58880;" d="M747.372 423.219l-392.261 391.876c-21.655 21.657-56.784 21.657-78.442 0-21.71100001-21.654-21.711-56.731 0-78.386l352.987-352.687-352.987-352.74c-21.711-21.653-21.711-56.731 0-78.383 21.658-21.658 56.786-21.658 78.442 0l392.261 391.934c21.652 21.597 21.652 56.731 0 78.386z"  horiz-adv-x="1024" />

    
    <glyph glyph-name="-new-music" unicode="&#58884;" d="M237.781-37.875c-80.54 0-147.656 65.199-147.656 147.656s65.199 147.657 147.656 147.657c32.6 0 63.281-11.506 90.128-30.682l7.67-5.753v473.65c0 28.765 23.012 51.776 49.859 51.776l492.826 57.528h3.835c26.847 1.918 51.776-21.093 51.776-49.858v-554.19c0-40.27-15.34-76.704-44.105-103.551-26.847-26.847-65.199-42.188-103.551-42.188-80.54 0-147.657 65.2-147.657 147.657 0 80.54 65.2 147.656 147.657 147.656 32.6 0 65.199-11.506 90.128-30.682l7.67-5.753v256.96l-498.58-53.693v-406.534c-1.917-82.457-67.116-147.656-147.656-147.656z m0 243.537c-53.693 0-97.798-44.105-97.798-97.798s44.105-97.799 97.798-97.799 97.799 44.105 97.799 97.799c-1.918 55.61-44.106 97.798-97.799 97.798z m548.438 92.045c-53.693 0-97.799-44.105-97.799-97.798s44.106-97.798 97.799-97.798 97.798 44.105 97.798 97.798-44.105 97.798-97.798 97.798z m-402.7 268.466l498.58 53.693V756.017l-492.826-57.528h-5.753v-132.316z"  horiz-adv-x="1024" />

    
    <glyph glyph-name="-mini" unicode="&#58913;" d="M31.030303 427.845818m62.060606 0l853.333333 0q62.060606 0 62.060606-62.060606l0-0.651636q0-62.060606-62.060606-62.060606l-853.333333 0q-62.060606 0-62.060606 62.060606l0 0.651636q0 62.060606 62.060606 62.060606Z"  horiz-adv-x="1024" />

    
    <glyph glyph-name="-playlist" unicode="&#60436;" d="M640 640H128v-85.333333h512v85.333333z m0-170.666667H128v-85.333333h512v85.333333zM128 213.33333300000004h341.333333v85.333334H128v-85.333334z m597.333333 426.666667v-349.226667c-13.44 4.906667-27.52 7.893333-42.666666 7.893334-70.613333 0-128-57.386667-128-128s57.386667-128 128-128 128 57.386667 128 128V554.666667h128v85.333333H725.333333z"  horiz-adv-x="1024" />

    
    <glyph glyph-name="-home" unicode="&#58885;" d="M971.6736 450.7648L594.8416 842.6496a122.2656 122.2656 0 0 1-176.5376 0L41.5744 450.7648c-38.912-40.96-33.8944-75.4688-27.5456-90.0096a65.536 65.536 0 0 1 64.6144-38.912h55.296v-301.4656c0-68.4032 49.152-133.12 119.0912-133.12h160.3584V206.5408c0 34.2016-5.12 53.248 29.7984 53.248h126.7712c35.0208 0 29.7984-19.0464 29.7984-53.248v-319.0784h160.4608c69.8368 0 119.0912 64.512 119.0912 133.12V321.8432h55.1936a65.536 65.536 0 0 1 64.6144 38.912c6.4512 14.5408 11.4688 49.5616-27.4432 90.0096z"  horiz-adv-x="1024" />

    
    <glyph glyph-name="-fullscreen" unicode="&#59254;" d="M425.1136 384L512 297.1136l-161.3824-161.3312L512-25.600000000000023H102.4v409.6l161.3312-161.3312L425.1136 384zM921.6 793.6v-409.6l-161.3824 161.3824L598.8864 384 512 470.8864l161.3312 161.3824L512 793.6h409.6z"  horiz-adv-x="1024" />

    


  </font>
</defs>
</svg>
